  0
SECTION
  2
HEADER
  9
$ACADVER
  1
AC1009
  9
$EXTMIN
 10
0.0
 20
0.0
 30
0.0
  9
$EXTMAX
 10
1000.0
 20
1000.0
 30
0.0
  9
$FILLMODE
 70
 0
  9
$SPLFRAME
 70
 1
  0
ENDSEC
  0
SECTION
  2
TABLES
  0
TABLE
  2
LAYER
 70
1
  0
LAYER
  2
0
 70
     0
 62
     7
  6
CONTINUOUS
  0
ENDTAB
  0
ENDSEC
  0
SECTION
  2
ENTITIES
  0
LINE
  8
0
 62
     0
 10
74.2968
 20
76.4575
 30
0.0
 11
74.4527
 21
76.4508
 31
0.0
  0
LINE
  8
0
 62
     0
 10
74.4527
 20
76.4508
 30
0.0
 11
74.6083
 21
76.4328
 31
0.0
  0
LINE
  8
0
 62
     0
 10
74.6083
 20
76.4328
 30
0.0
 11
74.7628
 21
76.4025
 31
0.0
  0
LINE
  8
0
 62
     0
 10
74.7628
 20
76.4025
 30
0.0
 11
74.9141
 21
76.3598
 31
0.0
  0
LINE
  8
0
 62
     0
 10
74.9141
 20
76.3598
 30
0.0
 11
75.0616
 21
76.3048
 31
0.0
  0
LINE
  8
0
 62
     0
 10
75.0616
 20
76.3048
 30
0.0
 11
75.2038
 21
76.2399
 31
0.0
  0
LINE
  8
0
 62
     0
 10
75.2038
 20
76.2399
 30
0.0
 11
75.3403
 21
76.163
 31
0.0
  0
LINE
  8
0
 62
     0
 10
75.3403
 20
76.163
 30
0.0
 11
75.4712
 21
76.0758
 31
0.0
  0
LINE
  8
0
 62
     0
 10
75.4712
 20
76.0758
 30
0.0
 11
75.595
 21
75.9781
 31
0.0
  0
LINE
  8
0
 62
     0
 10
75.595
 20
75.9781
 30
0.0
 11
75.7107
 21
75.8719
 31
0.0
  0
LINE
  8
0
 62
     0
 10
75.7107
 20
75.8719
 30
0.0
 11
75.8169
 21
75.7562
 31
0.0
  0
LINE
  8
0
 62
     0
 10
75.8169
 20
75.7562
 30
0.0
 11
75.9146
 21
75.6338
 31
0.0
  0
LINE
  8
0
 62
     0
 10
75.9146
 20
75.6338
 30
0.0
 11
76.0017
 21
75.5026
 31
0.0
  0
LINE
  8
0
 62
     0
 10
76.0017
 20
75.5026
 30
0.0
 11
76.0786
 21
75.365
 31
0.0
  0
LINE
  8
0
 62
     0
 10
76.0786
 20
75.365
 30
0.0
 11
76.1436
 21
75.2228
 31
0.0
  0
LINE
  8
0
 62
     0
 10
76.1436
 20
75.2228
 30
0.0
 11
76.1986
 21
75.0768
 31
0.0
  0
LINE
  8
0
 62
     0
 10
76.1986
 20
75.0768
 30
0.0
 11
76.2399
 21
74.924
 31
0.0
  0
LINE
  8
0
 62
     0
 10
76.2399
 20
74.924
 30
0.0
 11
76.2716
 21
74.7709
 31
0.0
  0
LINE
  8
0
 62
     0
 10
76.2716
 20
74.7709
 30
0.0
 11
76.2896
 21
74.6139
 31
0.0
  0
LINE
  8
0
 62
     0
 10
76.2896
 20
74.6139
 30
0.0
 11
76.2953
 21
74.4569
 31
0.0
  0
LINE
  8
0
 62
     0
 10
76.2953
 20
74.4569
 30
0.0
 11
76.2963
 21
2.25585
 31
0.0
  0
LINE
  8
0
 62
     0
 10
76.2963
 20
2.25585
 30
0.0
 11
76.2896
 21
2.10013
 31
0.0
  0
LINE
  8
0
 62
     0
 10
76.2896
 20
2.10013
 30
0.0
 11
76.2716
 21
1.94441
 31
0.0
  0
LINE
  8
0
 62
     0
 10
76.2716
 20
1.94441
 30
0.0
 11
76.2399
 21
1.79007
 31
0.0
  0
LINE
  8
0
 62
     0
 10
76.2399
 20
1.79007
 30
0.0
 11
76.1986
 21
1.63849
 31
0.0
  0
LINE
  8
0
 62
     0
 10
76.1986
 20
1.63849
 30
0.0
 11
76.1436
 21
1.49104
 31
0.0
  0
LINE
  8
0
 62
     0
 10
76.1436
 20
1.49104
 30
0.0
 11
76.0786
 21
1.3491
 31
0.0
  0
LINE
  8
0
 62
     0
 10
76.0786
 20
1.3491
 30
0.0
 11
76.0017
 21
1.21267
 31
0.0
  0
LINE
  8
0
 62
     0
 10
76.0017
 20
1.21267
 30
0.0
 11
75.9146
 21
1.08176
 31
0.0
  0
LINE
  8
0
 62
     0
 10
75.9146
 20
1.08176
 30
0.0
 11
75.8169
 21
0.957735
 31
0.0
  0
LINE
  8
0
 62
     0
 10
75.8169
 20
0.957735
 30
0.0
 11
75.7107
 21
0.841982
 31
0.0
  0
LINE
  8
0
 62
     0
 10
75.7107
 20
0.841982
 30
0.0
 11
75.595
 21
0.735873
 31
0.0
  0
LINE
  8
0
 62
     0
 10
75.595
 20
0.735873
 30
0.0
 11
75.4712
 21
0.63803
 31
0.0
  0
LINE
  8
0
 62
     0
 10
75.4712
 20
0.63803
 30
0.0
 11
75.3403
 21
0.551215
 31
0.0
  0
LINE
  8
0
 62
     0
 10
75.3403
 20
0.551215
 30
0.0
 11
75.2038
 21
0.474045
 31
0.0
  0
LINE
  8
0
 62
     0
 10
75.2038
 20
0.474045
 30
0.0
 11
75.0616
 21
0.409279
 31
0.0
  0
LINE
  8
0
 62
     0
 10
75.0616
 20
0.409279
 30
0.0
 11
74.9141
 21
0.354157
 31
0.0
  0
LINE
  8
0
 62
     0
 10
74.9141
 20
0.354157
 30
0.0
 11
74.7628
 21
0.312815
 31
0.0
  0
LINE
  8
0
 62
     0
 10
74.7628
 20
0.312815
 30
0.0
 11
74.6083
 21
0.28112
 31
0.0
  0
LINE
  8
0
 62
     0
 10
74.6083
 20
0.28112
 30
0.0
 11
74.4527
 21
0.263205
 31
0.0
  0
LINE
  8
0
 62
     0
 10
74.4527
 20
0.263205
 30
0.0
 11
74.2968
 21
0.257693
 31
0.0
  0
LINE
  8
0
 62
     0
 10
74.2968
 20
0.257693
 30
0.0
 11
2.096
 21
0.256315
 31
0.0
  0
LINE
  8
0
 62
     0
 10
2.096
 20
0.256315
 30
0.0
 11
1.9389
 21
0.263205
 31
0.0
  0
LINE
  8
0
 62
     0
 10
1.9389
 20
0.263205
 30
0.0
 11
1.7818
 21
0.28112
 31
0.0
  0
LINE
  8
0
 62
     0
 10
1.7818
 20
0.28112
 30
0.0
 11
1.62884
 21
0.312815
 31
0.0
  0
LINE
  8
0
 62
     0
 10
1.62884
 20
0.312815
 30
0.0
 11
1.47588
 21
0.354157
 31
0.0
  0
LINE
  8
0
 62
     0
 10
1.47588
 20
0.354157
 30
0.0
 11
1.32981
 21
0.409279
 31
0.0
  0
LINE
  8
0
 62
     0
 10
1.32981
 20
0.409279
 30
0.0
 11
1.18787
 21
0.474045
 31
0.0
  0
LINE
  8
0
 62
     0
 10
1.18787
 20
0.474045
 30
0.0
 11
1.05006
 21
0.551215
 31
0.0
  0
LINE
  8
0
 62
     0
 10
1.05006
 20
0.551215
 30
0.0
 11
0.919152
 21
0.63803
 31
0.0
  0
LINE
  8
0
 62
     0
 10
0.919152
 20
0.63803
 30
0.0
 11
0.796505
 21
0.735873
 31
0.0
  0
LINE
  8
0
 62
     0
 10
0.796505
 20
0.735873
 30
0.0
 11
0.680752
 21
0.841982
 31
0.0
  0
LINE
  8
0
 62
     0
 10
0.680752
 20
0.841982
 30
0.0
 11
0.574643
 21
0.957735
 31
0.0
  0
LINE
  8
0
 62
     0
 10
0.574643
 20
0.957735
 30
0.0
 11
0.4768
 21
1.08176
 31
0.0
  0
LINE
  8
0
 62
     0
 10
0.4768
 20
1.08176
 30
0.0
 11
0.389985
 21
1.21267
 31
0.0
  0
LINE
  8
0
 62
     0
 10
0.389985
 20
1.21267
 30
0.0
 11
0.312815
 21
1.3491
 31
0.0
  0
LINE
  8
0
 62
     0
 10
0.312815
 20
1.3491
 30
0.0
 11
0.248047
 21
1.49104
 31
0.0
  0
LINE
  8
0
 62
     0
 10
0.248047
 20
1.49104
 30
0.0
 11
0.192925
 21
1.63849
 31
0.0
  0
LINE
  8
0
 62
     0
 10
0.192925
 20
1.63849
 30
0.0
 11
0.150206
 21
1.79007
 31
0.0
  0
LINE
  8
0
 62
     0
 10
0.150206
 20
1.79007
 30
0.0
 11
0.119889
 21
1.94441
 31
0.0
  0
LINE
  8
0
 62
     0
 10
0.119889
 20
1.94441
 30
0.0
 11
0.101975
 21
2.10013
 31
0.0
  0
LINE
  8
0
 62
     0
 10
0.101975
 20
2.10013
 30
0.0
 11
0.0950846
 21
2.25585
 31
0.0
  0
LINE
  8
0
 62
     0
 10
0.0950846
 20
2.25585
 30
0.0
 11
0.0950846
 21
74.4569
 31
0.0
  0
LINE
  8
0
 62
     0
 10
0.0950846
 20
74.4569
 30
0.0
 11
0.101975
 21
74.6139
 31
0.0
  0
LINE
  8
0
 62
     0
 10
0.101975
 20
74.6139
 30
0.0
 11
0.119889
 21
74.7709
 31
0.0
  0
LINE
  8
0
 62
     0
 10
0.119889
 20
74.7709
 30
0.0
 11
0.150206
 21
74.924
 31
0.0
  0
LINE
  8
0
 62
     0
 10
0.150206
 20
74.924
 30
0.0
 11
0.192925
 21
75.0768
 31
0.0
  0
LINE
  8
0
 62
     0
 10
0.192925
 20
75.0768
 30
0.0
 11
0.248047
 21
75.2228
 31
0.0
  0
LINE
  8
0
 62
     0
 10
0.248047
 20
75.2228
 30
0.0
 11
0.312815
 21
75.365
 31
0.0
  0
LINE
  8
0
 62
     0
 10
0.312815
 20
75.365
 30
0.0
 11
0.389985
 21
75.5026
 31
0.0
  0
LINE
  8
0
 62
     0
 10
0.389985
 20
75.5026
 30
0.0
 11
0.4768
 21
75.6338
 31
0.0
  0
LINE
  8
0
 62
     0
 10
0.4768
 20
75.6338
 30
0.0
 11
0.574643
 21
75.7562
 31
0.0
  0
LINE
  8
0
 62
     0
 10
0.574643
 20
75.7562
 30
0.0
 11
0.680752
 21
75.8719
 31
0.0
  0
LINE
  8
0
 62
     0
 10
0.680752
 20
75.8719
 30
0.0
 11
0.796505
 21
75.9781
 31
0.0
  0
LINE
  8
0
 62
     0
 10
0.796505
 20
75.9781
 30
0.0
 11
0.919152
 21
76.0758
 31
0.0
  0
LINE
  8
0
 62
     0
 10
0.919152
 20
76.0758
 30
0.0
 11
1.05006
 21
76.163
 31
0.0
  0
LINE
  8
0
 62
     0
 10
1.05006
 20
76.163
 30
0.0
 11
1.18787
 21
76.2399
 31
0.0
  0
LINE
  8
0
 62
     0
 10
1.18787
 20
76.2399
 30
0.0
 11
1.32981
 21
76.3048
 31
0.0
  0
LINE
  8
0
 62
     0
 10
1.32981
 20
76.3048
 30
0.0
 11
1.47588
 21
76.3598
 31
0.0
  0
LINE
  8
0
 62
     0
 10
1.47588
 20
76.3598
 30
0.0
 11
1.62884
 21
76.4025
 31
0.0
  0
LINE
  8
0
 62
     0
 10
1.62884
 20
76.4025
 30
0.0
 11
1.7818
 21
76.4328
 31
0.0
  0
LINE
  8
0
 62
     0
 10
1.7818
 20
76.4328
 30
0.0
 11
1.9389
 21
76.4508
 31
0.0
  0
LINE
  8
0
 62
     0
 10
1.9389
 20
76.4508
 30
0.0
 11
2.096
 21
76.4575
 31
0.0
  0
LINE
  8
0
 62
     0
 10
2.096
 20
76.4575
 30
0.0
 11
74.2968
 21
76.4575
 31
0.0
  0
LINE
  8
0
 62
     0
 10
59.7711
 20
16.7817
 30
0.0
 11
73.7704
 21
16.7817
 31
0.0
  0
LINE
  8
0
 62
     0
 10
73.7704
 20
16.7817
 30
0.0
 11
73.7704
 21
2.78226
 31
0.0
  0
LINE
  8
0
 62
     0
 10
73.7704
 20
2.78226
 30
0.0
 11
59.7711
 21
2.78226
 31
0.0
  0
LINE
  8
0
 62
     0
 10
59.7711
 20
2.78226
 30
0.0
 11
59.7711
 21
16.7817
 31
0.0
  0
LINE
  8
0
 62
     0
 10
40.7211
 20
16.7817
 30
0.0
 11
54.7204
 21
16.7817
 31
0.0
  0
LINE
  8
0
 62
     0
 10
54.7204
 20
16.7817
 30
0.0
 11
54.7204
 21
2.78226
 31
0.0
  0
LINE
  8
0
 62
     0
 10
54.7204
 20
2.78226
 30
0.0
 11
40.7211
 21
2.78226
 31
0.0
  0
LINE
  8
0
 62
     0
 10
40.7211
 20
2.78226
 30
0.0
 11
40.7211
 21
16.7817
 31
0.0
  0
LINE
  8
0
 62
     0
 10
21.671
 20
16.7817
 30
0.0
 11
35.6704
 21
16.7817
 31
0.0
  0
LINE
  8
0
 62
     0
 10
35.6704
 20
16.7817
 30
0.0
 11
35.6704
 21
2.78226
 31
0.0
  0
LINE
  8
0
 62
     0
 10
35.6704
 20
2.78226
 30
0.0
 11
21.671
 21
2.78226
 31
0.0
  0
LINE
  8
0
 62
     0
 10
21.671
 20
2.78226
 30
0.0
 11
21.671
 21
16.7817
 31
0.0
  0
LINE
  8
0
 62
     0
 10
2.62103
 20
16.7817
 30
0.0
 11
16.6205
 21
16.7817
 31
0.0
  0
LINE
  8
0
 62
     0
 10
16.6205
 20
16.7817
 30
0.0
 11
16.6205
 21
2.78226
 31
0.0
  0
LINE
  8
0
 62
     0
 10
16.6205
 20
2.78226
 30
0.0
 11
2.62103
 21
2.78226
 31
0.0
  0
LINE
  8
0
 62
     0
 10
2.62103
 20
2.78226
 30
0.0
 11
2.62103
 21
16.7817
 31
0.0
  0
LINE
  8
0
 62
     0
 10
59.7711
 20
35.8316
 30
0.0
 11
73.7704
 21
35.8316
 31
0.0
  0
LINE
  8
0
 62
     0
 10
73.7704
 20
35.8316
 30
0.0
 11
73.7704
 21
21.8323
 31
0.0
  0
LINE
  8
0
 62
     0
 10
73.7704
 20
21.8323
 30
0.0
 11
59.7711
 21
21.8323
 31
0.0
  0
LINE
  8
0
 62
     0
 10
59.7711
 20
21.8323
 30
0.0
 11
59.7711
 21
35.8316
 31
0.0
  0
LINE
  8
0
 62
     0
 10
40.7211
 20
35.8316
 30
0.0
 11
54.7204
 21
35.8316
 31
0.0
  0
LINE
  8
0
 62
     0
 10
54.7204
 20
35.8316
 30
0.0
 11
54.7204
 21
21.8323
 31
0.0
  0
LINE
  8
0
 62
     0
 10
54.7204
 20
21.8323
 30
0.0
 11
40.7211
 21
21.8323
 31
0.0
  0
LINE
  8
0
 62
     0
 10
40.7211
 20
21.8323
 30
0.0
 11
40.7211
 21
35.8316
 31
0.0
  0
LINE
  8
0
 62
     0
 10
21.671
 20
35.8316
 30
0.0
 11
35.6704
 21
35.8316
 31
0.0
  0
LINE
  8
0
 62
     0
 10
35.6704
 20
35.8316
 30
0.0
 11
35.6704
 21
21.8323
 31
0.0
  0
LINE
  8
0
 62
     0
 10
35.6704
 20
21.8323
 30
0.0
 11
21.671
 21
21.8323
 31
0.0
  0
LINE
  8
0
 62
     0
 10
21.671
 20
21.8323
 30
0.0
 11
21.671
 21
35.8316
 31
0.0
  0
LINE
  8
0
 62
     0
 10
2.62103
 20
35.8316
 30
0.0
 11
16.6205
 21
35.8316
 31
0.0
  0
LINE
  8
0
 62
     0
 10
16.6205
 20
35.8316
 30
0.0
 11
16.6205
 21
21.8323
 31
0.0
  0
LINE
  8
0
 62
     0
 10
16.6205
 20
21.8323
 30
0.0
 11
2.62103
 21
21.8323
 31
0.0
  0
LINE
  8
0
 62
     0
 10
2.62103
 20
21.8323
 30
0.0
 11
2.62103
 21
35.8316
 31
0.0
  0
LINE
  8
0
 62
     0
 10
59.7711
 20
54.8816
 30
0.0
 11
73.7704
 21
54.8816
 31
0.0
  0
LINE
  8
0
 62
     0
 10
73.7704
 20
54.8816
 30
0.0
 11
73.7704
 21
40.8824
 31
0.0
  0
LINE
  8
0
 62
     0
 10
73.7704
 20
40.8824
 30
0.0
 11
59.7711
 21
40.8824
 31
0.0
  0
LINE
  8
0
 62
     0
 10
59.7711
 20
40.8824
 30
0.0
 11
59.7711
 21
54.8816
 31
0.0
  0
LINE
  8
0
 62
     0
 10
40.7211
 20
54.8816
 30
0.0
 11
54.7204
 21
54.8816
 31
0.0
  0
LINE
  8
0
 62
     0
 10
54.7204
 20
54.8816
 30
0.0
 11
54.7204
 21
40.8824
 31
0.0
  0
LINE
  8
0
 62
     0
 10
54.7204
 20
40.8824
 30
0.0
 11
40.7211
 21
40.8824
 31
0.0
  0
LINE
  8
0
 62
     0
 10
40.7211
 20
40.8824
 30
0.0
 11
40.7211
 21
54.8816
 31
0.0
  0
LINE
  8
0
 62
     0
 10
21.671
 20
54.8816
 30
0.0
 11
35.6704
 21
54.8816
 31
0.0
  0
LINE
  8
0
 62
     0
 10
35.6704
 20
54.8816
 30
0.0
 11
35.6704
 21
40.8824
 31
0.0
  0
LINE
  8
0
 62
     0
 10
35.6704
 20
40.8824
 30
0.0
 11
21.671
 21
40.8824
 31
0.0
  0
LINE
  8
0
 62
     0
 10
21.671
 20
40.8824
 30
0.0
 11
21.671
 21
54.8816
 31
0.0
  0
LINE
  8
0
 62
     0
 10
2.62103
 20
54.8816
 30
0.0
 11
16.6205
 21
54.8816
 31
0.0
  0
LINE
  8
0
 62
     0
 10
16.6205
 20
54.8816
 30
0.0
 11
16.6205
 21
40.8824
 31
0.0
  0
LINE
  8
0
 62
     0
 10
16.6205
 20
40.8824
 30
0.0
 11
2.62103
 21
40.8824
 31
0.0
  0
LINE
  8
0
 62
     0
 10
2.62103
 20
40.8824
 30
0.0
 11
2.62103
 21
54.8816
 31
0.0
  0
LINE
  8
0
 62
     0
 10
59.7711
 20
73.9316
 30
0.0
 11
73.7704
 21
73.9316
 31
0.0
  0
LINE
  8
0
 62
     0
 10
73.7704
 20
73.9316
 30
0.0
 11
73.7704
 21
59.9324
 31
0.0
  0
LINE
  8
0
 62
     0
 10
73.7704
 20
59.9324
 30
0.0
 11
59.7711
 21
59.9324
 31
0.0
  0
LINE
  8
0
 62
     0
 10
59.7711
 20
59.9324
 30
0.0
 11
59.7711
 21
73.9316
 31
0.0
  0
LINE
  8
0
 62
     0
 10
40.7211
 20
73.9316
 30
0.0
 11
54.7204
 21
73.9316
 31
0.0
  0
LINE
  8
0
 62
     0
 10
54.7204
 20
73.9316
 30
0.0
 11
54.7204
 21
59.9324
 31
0.0
  0
LINE
  8
0
 62
     0
 10
54.7204
 20
59.9324
 30
0.0
 11
40.7211
 21
59.9324
 31
0.0
  0
LINE
  8
0
 62
     0
 10
40.7211
 20
59.9324
 30
0.0
 11
40.7211
 21
73.9316
 31
0.0
  0
LINE
  8
0
 62
     0
 10
21.671
 20
73.9316
 30
0.0
 11
35.6704
 21
73.9316
 31
0.0
  0
LINE
  8
0
 62
     0
 10
35.6704
 20
73.9316
 30
0.0
 11
35.6704
 21
59.9324
 31
0.0
  0
LINE
  8
0
 62
     0
 10
35.6704
 20
59.9324
 30
0.0
 11
21.671
 21
59.9324
 31
0.0
  0
LINE
  8
0
 62
     0
 10
21.671
 20
59.9324
 30
0.0
 11
21.671
 21
73.9316
 31
0.0
  0
LINE
  8
0
 62
     0
 10
2.62103
 20
73.9316
 30
0.0
 11
16.6205
 21
73.9316
 31
0.0
  0
LINE
  8
0
 62
     0
 10
16.6205
 20
73.9316
 30
0.0
 11
16.6205
 21
59.9324
 31
0.0
  0
LINE
  8
0
 62
     0
 10
16.6205
 20
59.9324
 30
0.0
 11
2.62103
 21
59.9324
 31
0.0
  0
LINE
  8
0
 62
     0
 10
2.62103
 20
59.9324
 30
0.0
 11
2.62103
 21
73.9316
 31
0.0
  0
ENDSEC
  0
EOF
